<svg width="84" height="86" viewBox="0 0 84 86" fill="none" xmlns="http://www.w3.org/2000/svg">
<path d="M45.5 90H15.5C14.1739 90 12.9021 89.4732 11.9645 88.5355C11.0268 87.5979 10.5 86.3261 10.5 85V15C10.5 13.6739 11.0268 12.4021 11.9645 11.4645C12.9021 10.5268 14.1739 10 15.5 10H40.5V25C40.5 28.9782 42.0804 32.7936 44.8934 35.6066C47.7064 38.4196 51.5218 40 55.5 40H70.5V65C70.5 66.3261 71.0268 67.5979 71.9645 68.5355C72.9021 69.4732 74.1739 70 75.5 70C76.8261 70 78.0979 69.4732 79.0355 68.5355C79.9732 67.5979 80.5 66.3261 80.5 65V35C80.5 35 80.5 35 80.5 34.7C80.4479 34.2407 80.3474 33.7882 80.2 33.35V32.9C79.9596 32.3859 79.6389 31.9133 79.25 31.5V31.5L49.25 1.5C48.8367 1.11108 48.3641 0.790405 47.85 0.549999C47.6846 0.521047 47.5154 0.521047 47.35 0.549999C46.8638 0.290015 46.3413 0.10461 45.8 0H15.5C11.5218 0 7.70644 1.58035 4.8934 4.3934C2.08035 7.20644 0.5 11.0218 0.5 15V85C0.5 88.9782 2.08035 92.7936 4.8934 95.6066C7.70644 98.4196 11.5218 100 15.5 100H45.5C46.8261 100 48.0979 99.4732 49.0355 98.5355C49.9732 97.5979 50.5 96.3261 50.5 95C50.5 93.6739 49.9732 92.4021 49.0355 91.4645C48.0979 90.5268 46.8261 90 45.5 90ZM50.5 17.05L63.45 30H55.5C54.1739 30 52.9021 29.4732 51.9645 28.5355C51.0268 27.5979 50.5 26.3261 50.5 25V17.05ZM25.5 60H55.5C56.8261 60 58.0979 59.4732 59.0355 58.5355C59.9732 57.5979 60.5 56.3261 60.5 55C60.5 53.6739 59.9732 52.4021 59.0355 51.4645C58.0979 50.5268 56.8261 50 55.5 50H25.5C24.1739 50 22.9021 50.5268 21.9645 51.4645C21.0268 52.4021 20.5 53.6739 20.5 55C20.5 56.3261 21.0268 57.5979 21.9645 58.5355C22.9021 59.4732 24.1739 60 25.5 60ZM45.5 70H25.5C24.1739 70 22.9021 70.5268 21.9645 71.4645C21.0268 72.4021 20.5 73.6739 20.5 75C20.5 76.3261 21.0268 77.5979 21.9645 78.5355C22.9021 79.4732 24.1739 80 25.5 80H45.5C46.8261 80 48.0979 79.4732 49.0355 78.5355C49.9732 77.5979 50.5 76.3261 50.5 75C50.5 73.6739 49.9732 72.4021 49.0355 71.4645C48.0979 70.5268 46.8261 70 45.5 70ZM25.5 40H30.5C31.8261 40 33.0979 39.4732 34.0355 38.5355C34.9732 37.5979 35.5 36.3261 35.5 35C35.5 33.6739 34.9732 32.4021 34.0355 31.4645C33.0979 30.5268 31.8261 30 30.5 30H25.5C24.1739 30 22.9021 30.5268 21.9645 31.4645C21.0268 32.4021 20.5 33.6739 20.5 35C20.5 36.3261 21.0268 37.5979 21.9645 38.5355C22.9021 39.4732 24.1739 40 25.5 40ZM94.05 71.45C93.5852 70.9814 93.0322 70.6094 92.4229 70.3555C91.8136 70.1017 91.1601 69.971 90.5 69.971C89.8399 69.971 89.1864 70.1017 88.5771 70.3555C87.9678 70.6094 87.4148 70.9814 86.95 71.45L70.5 87.95L64.05 81.45C63.5838 80.9838 63.0304 80.614 62.4212 80.3617C61.8121 80.1094 61.1593 79.9795 60.5 79.9795C59.8407 79.9795 59.1879 80.1094 58.5788 80.3617C57.9696 80.614 57.4162 80.9838 56.95 81.45C56.4838 81.9162 56.114 82.4696 55.8617 83.0788C55.6094 83.6879 55.4795 84.3407 55.4795 85C55.4795 85.6593 55.6094 86.3121 55.8617 86.9212C56.114 87.5304 56.4838 88.0838 56.95 88.55L66.95 98.55C67.4148 99.0186 67.9678 99.3906 68.5771 99.6445C69.1864 99.8983 69.8399 100.029 70.5 100.029C71.1601 100.029 71.8136 99.8983 72.4229 99.6445C73.0322 99.3906 73.5852 99.0186 74.05 98.55L94.05 78.55C94.5186 78.0852 94.8906 77.5322 95.1445 76.9229C95.3983 76.3136 95.529 75.6601 95.529 75C95.529 74.3399 95.3983 73.6864 95.1445 73.0771C94.8906 72.4678 94.5186 71.9148 94.05 71.45V71.45Z" fill="white"/>
</svg>
