<svg width="86" height="86" viewBox="0 0 86 86" fill="none" xmlns="http://www.w3.org/2000/svg">
<path d="M85 0H15C11.0218 0 7.20644 1.58035 4.3934 4.3934C1.58035 7.20644 0 11.0218 0 15V65C0 68.9782 1.58035 72.7936 4.3934 75.6066C7.20644 78.4196 11.0218 80 15 80H28.2L25.3 85C24.4223 86.5202 23.9603 88.2446 23.9603 90C23.9603 91.7554 24.4223 93.4798 25.3 95C26.1852 96.5334 27.4618 97.8044 28.9991 98.6828C30.5364 99.5613 32.2794 100.016 34.05 100H66.35C68.1036 99.9982 69.826 99.5353 71.3442 98.6577C72.8624 97.7801 74.1232 96.5187 75 95C75.8777 93.4798 76.3398 91.7554 76.3398 90C76.3398 88.2446 75.8777 86.5202 75 85L72.05 80H85C88.9782 80 92.7936 78.4196 95.6066 75.6066C98.4196 72.7936 100 68.9782 100 65V15C100 11.0218 98.4196 7.20644 95.6066 4.3934C92.7936 1.58035 88.9782 0 85 0ZM33.85 90L40 80H60L66 90H33.85ZM90 65C90 66.3261 89.4732 67.5979 88.5355 68.5355C87.5979 69.4732 86.3261 70 85 70H15C13.6739 70 12.4021 69.4732 11.4645 68.5355C10.5268 67.5979 10 66.3261 10 65V60H90V65ZM90 50H10V15C10 13.6739 10.5268 12.4021 11.4645 11.4645C12.4021 10.5268 13.6739 10 15 10H85C86.3261 10 87.5979 10.5268 88.5355 11.4645C89.4732 12.4021 90 13.6739 90 15V50Z" fill="white"/>
</svg>
