<svg width="87" height="52" viewBox="0 0 87 52" fill="none" xmlns="http://www.w3.org/2000/svg">
<path d="M99.5499 2.45018C99.0851 1.98154 98.5321 1.60957 97.9228 1.35573C97.3135 1.10188 96.66 0.971191 95.9999 0.971191C95.3399 0.971191 94.6864 1.10188 94.0771 1.35573C93.4678 1.60957 92.9148 1.98154 92.4499 2.45018L60.9999 33.9502L39.5499 12.4502C39.0851 11.9815 38.5321 11.6096 37.9228 11.3557C37.3135 11.1019 36.66 10.9712 35.9999 10.9712C35.3399 10.9712 34.6864 11.1019 34.0771 11.3557C33.4678 11.6096 32.9148 11.9815 32.4499 12.4502L2.44994 42.4502C1.9813 42.915 1.60933 43.468 1.35548 44.0773C1.10164 44.6866 0.970947 45.3401 0.970947 46.0002C0.970947 46.6602 1.10164 47.3138 1.35548 47.9231C1.60933 48.5324 1.9813 49.0854 2.44994 49.5502C2.91475 50.0188 3.46776 50.3908 4.07706 50.6446C4.68635 50.8985 5.33988 51.0292 5.99994 51.0292C6.66 51.0292 7.31353 50.8985 7.92282 50.6446C8.53212 50.3908 9.08512 50.0188 9.54994 49.5502L35.9999 23.0502L57.4499 44.5502C57.9148 45.0188 58.4678 45.3908 59.0771 45.6446C59.6864 45.8985 60.3399 46.0292 60.9999 46.0292C61.66 46.0292 62.3135 45.8985 62.9228 45.6446C63.5321 45.3908 64.0851 45.0188 64.5499 44.5502L99.5499 9.55018C100.019 9.08537 100.391 8.53236 100.644 7.92307C100.898 7.31377 101.029 6.66024 101.029 6.00018C101.029 5.34012 100.898 4.6866 100.644 4.0773C100.391 3.468 100.019 2.915 99.5499 2.45018V2.45018Z" fill="white"/>
</svg>
