<svg width="24" height="25" viewBox="0 0 24 25" fill="none" xmlns="http://www.w3.org/2000/svg">
<g opacity="0.6">
<path d="M12 3.5C10.6868 3.5 9.38642 3.75866 8.17317 4.2612C6.95991 4.76375 5.85752 5.50035 4.92893 6.42893C3.05357 8.3043 2 10.8478 2 13.5V20.5C2 20.7652 2.10536 21.0196 2.29289 21.2071C2.48043 21.3946 2.73478 21.5 3 21.5H6C6.79565 21.5 7.55871 21.1839 8.12132 20.6213C8.68393 20.0587 9 19.2956 9 18.5V16.5C9 15.7044 8.68393 14.9413 8.12132 14.3787C7.55871 13.8161 6.79565 13.5 6 13.5H4C4 11.3783 4.84285 9.34344 6.34315 7.84315C7.84344 6.34285 9.87827 5.5 12 5.5C14.1217 5.5 16.1566 6.34285 17.6569 7.84315C19.1571 9.34344 20 11.3783 20 13.5H18C17.2044 13.5 16.4413 13.8161 15.8787 14.3787C15.3161 14.9413 15 15.7044 15 16.5V18.5C15 19.2956 15.3161 20.0587 15.8787 20.6213C16.4413 21.1839 17.2044 21.5 18 21.5H21C21.2652 21.5 21.5196 21.3946 21.7071 21.2071C21.8946 21.0196 22 20.7652 22 20.5V13.5C22 10.8478 20.9464 8.3043 19.0711 6.42893C17.1957 4.55357 14.6522 3.5 12 3.5ZM6 15.5C6.26522 15.5 6.51957 15.6054 6.70711 15.7929C6.89464 15.9804 7 16.2348 7 16.5V18.5C7 18.7652 6.89464 19.0196 6.70711 19.2071C6.51957 19.3946 6.26522 19.5 6 19.5H4V15.5H6ZM20 19.5H18C17.7348 19.5 17.4804 19.3946 17.2929 19.2071C17.1054 19.0196 17 18.7652 17 18.5V16.5C17 16.2348 17.1054 15.9804 17.2929 15.7929C17.4804 15.6054 17.7348 15.5 18 15.5H20V19.5Z" fill="white"/>
</g>
</svg>
