<svg width="86" height="86" viewBox="0 0 86 86" fill="none" xmlns="http://www.w3.org/2000/svg">
<path d="M50 60C50.9889 60 51.9556 59.7068 52.7779 59.1573C53.6001 58.6079 54.241 57.827 54.6194 56.9134C54.9978 55.9998 55.0969 54.9945 54.9039 54.0245C54.711 53.0546 54.2348 52.1637 53.5355 51.4645C52.8363 50.7652 51.9454 50.289 50.9755 50.0961C50.0055 49.9031 49.0002 50.0022 48.0866 50.3806C47.173 50.759 46.3921 51.3999 45.8427 52.2221C45.2932 53.0444 45 54.0111 45 55C45 56.3261 45.5268 57.5979 46.4645 58.5355C47.4021 59.4732 48.6739 60 50 60ZM75 60C75.9889 60 76.9556 59.7068 77.7779 59.1573C78.6001 58.6079 79.241 57.827 79.6194 56.9134C79.9978 55.9998 80.0969 54.9945 79.9039 54.0245C79.711 53.0546 79.2348 52.1637 78.5355 51.4645C77.8363 50.7652 76.9454 50.289 75.9755 50.0961C75.0056 49.9031 74.0002 50.0022 73.0866 50.3806C72.173 50.759 71.3921 51.3999 70.8426 52.2221C70.2932 53.0444 70 54.0111 70 55C70 56.3261 70.5268 57.5979 71.4645 58.5355C72.4021 59.4732 73.6739 60 75 60ZM50 80C50.9889 80 51.9556 79.7068 52.7779 79.1574C53.6001 78.6079 54.241 77.827 54.6194 76.9134C54.9978 75.9998 55.0969 74.9944 54.9039 74.0245C54.711 73.0546 54.2348 72.1637 53.5355 71.4645C52.8363 70.7652 51.9454 70.289 50.9755 70.0961C50.0055 69.9031 49.0002 70.0022 48.0866 70.3806C47.173 70.759 46.3921 71.3999 45.8427 72.2221C45.2932 73.0444 45 74.0111 45 75C45 76.3261 45.5268 77.5979 46.4645 78.5355C47.4021 79.4732 48.6739 80 50 80ZM75 80C75.9889 80 76.9556 79.7068 77.7779 79.1574C78.6001 78.6079 79.241 77.827 79.6194 76.9134C79.9978 75.9998 80.0969 74.9944 79.9039 74.0245C79.711 73.0546 79.2348 72.1637 78.5355 71.4645C77.8363 70.7652 76.9454 70.289 75.9755 70.0961C75.0056 69.9031 74.0002 70.0022 73.0866 70.3806C72.173 70.759 71.3921 71.3999 70.8426 72.2221C70.2932 73.0444 70 74.0111 70 75C70 76.3261 70.5268 77.5979 71.4645 78.5355C72.4021 79.4732 73.6739 80 75 80ZM25 60C25.9889 60 26.9556 59.7068 27.7779 59.1573C28.6001 58.6079 29.241 57.827 29.6194 56.9134C29.9978 55.9998 30.0969 54.9945 29.9039 54.0245C29.711 53.0546 29.2348 52.1637 28.5355 51.4645C27.8363 50.7652 26.9454 50.289 25.9755 50.0961C25.0055 49.9031 24.0002 50.0022 23.0866 50.3806C22.173 50.759 21.3921 51.3999 20.8427 52.2221C20.2932 53.0444 20 54.0111 20 55C20 56.3261 20.5268 57.5979 21.4645 58.5355C22.4021 59.4732 23.6739 60 25 60ZM85 10H80V5C80 3.67392 79.4732 2.40215 78.5355 1.46447C77.5979 0.526784 76.3261 0 75 0C73.6739 0 72.4021 0.526784 71.4645 1.46447C70.5268 2.40215 70 3.67392 70 5V10H30V5C30 3.67392 29.4732 2.40215 28.5355 1.46447C27.5979 0.526784 26.3261 0 25 0C23.6739 0 22.4021 0.526784 21.4645 1.46447C20.5268 2.40215 20 3.67392 20 5V10H15C11.0218 10 7.20644 11.5804 4.3934 14.3934C1.58035 17.2064 0 21.0218 0 25V85C0 88.9782 1.58035 92.7936 4.3934 95.6066C7.20644 98.4196 11.0218 100 15 100H85C88.9782 100 92.7936 98.4196 95.6066 95.6066C98.4196 92.7936 100 88.9782 100 85V25C100 21.0218 98.4196 17.2064 95.6066 14.3934C92.7936 11.5804 88.9782 10 85 10V10ZM90 85C90 86.3261 89.4732 87.5979 88.5355 88.5355C87.5979 89.4732 86.3261 90 85 90H15C13.6739 90 12.4021 89.4732 11.4645 88.5355C10.5268 87.5979 10 86.3261 10 85V40H90V85ZM90 30H10V25C10 23.6739 10.5268 22.4021 11.4645 21.4645C12.4021 20.5268 13.6739 20 15 20H85C86.3261 20 87.5979 20.5268 88.5355 21.4645C89.4732 22.4021 90 23.6739 90 25V30ZM25 80C25.9889 80 26.9556 79.7068 27.7779 79.1574C28.6001 78.6079 29.241 77.827 29.6194 76.9134C29.9978 75.9998 30.0969 74.9944 29.9039 74.0245C29.711 73.0546 29.2348 72.1637 28.5355 71.4645C27.8363 70.7652 26.9454 70.289 25.9755 70.0961C25.0055 69.9031 24.0002 70.0022 23.0866 70.3806C22.173 70.759 21.3921 71.3999 20.8427 72.2221C20.2932 73.0444 20 74.0111 20 75C20 76.3261 20.5268 77.5979 21.4645 78.5355C22.4021 79.4732 23.6739 80 25 80Z" fill="white"/>
</svg>
