<svg width="24" height="25" viewBox="0 0 24 25" fill="none" xmlns="http://www.w3.org/2000/svg">
<g opacity="0.6">
<path d="M21 4.5H18V3.5C18 3.23478 17.8946 2.98043 17.7071 2.79289C17.5196 2.60536 17.2652 2.5 17 2.5H7C6.73478 2.5 6.48043 2.60536 6.29289 2.79289C6.10536 2.98043 6 3.23478 6 3.5V4.5H3C2.73478 4.5 2.48043 4.60536 2.29289 4.79289C2.10536 4.98043 2 5.23478 2 5.5V8.5C2 9.56087 2.42143 10.5783 3.17157 11.3284C3.92172 12.0786 4.93913 12.5 6 12.5H7.54C8.44453 13.5091 9.66406 14.1824 11 14.41V16.5H10C9.20435 16.5 8.44129 16.8161 7.87868 17.3787C7.31607 17.9413 7 18.7044 7 19.5V21.5C7 21.7652 7.10536 22.0196 7.29289 22.2071C7.48043 22.3946 7.73478 22.5 8 22.5H16C16.2652 22.5 16.5196 22.3946 16.7071 22.2071C16.8946 22.0196 17 21.7652 17 21.5V19.5C17 18.7044 16.6839 17.9413 16.1213 17.3787C15.5587 16.8161 14.7956 16.5 14 16.5H13V14.41C14.3359 14.1824 15.5555 13.5091 16.46 12.5H18C19.0609 12.5 20.0783 12.0786 20.8284 11.3284C21.5786 10.5783 22 9.56087 22 8.5V5.5C22 5.23478 21.8946 4.98043 21.7071 4.79289C21.5196 4.60536 21.2652 4.5 21 4.5ZM6 10.5C5.46957 10.5 4.96086 10.2893 4.58579 9.91421C4.21071 9.53914 4 9.03043 4 8.5V6.5H6V8.5C6.0022 9.18171 6.12056 9.85806 6.35 10.5H6ZM14 18.5C14.2652 18.5 14.5196 18.6054 14.7071 18.7929C14.8946 18.9804 15 19.2348 15 19.5V20.5H9V19.5C9 19.2348 9.10536 18.9804 9.29289 18.7929C9.48043 18.6054 9.73478 18.5 10 18.5H14ZM16 8.5C16 9.56087 15.5786 10.5783 14.8284 11.3284C14.0783 12.0786 13.0609 12.5 12 12.5C10.9391 12.5 9.92172 12.0786 9.17157 11.3284C8.42143 10.5783 8 9.56087 8 8.5V4.5H16V8.5ZM20 8.5C20 9.03043 19.7893 9.53914 19.4142 9.91421C19.0391 10.2893 18.5304 10.5 18 10.5H17.65C17.8794 9.85806 17.9978 9.18171 18 8.5V6.5H20V8.5Z" fill="white"/>
</g>
</svg>
