<svg width="16" height="17" viewBox="0 0 16 17" fill="none" xmlns="http://www.w3.org/2000/svg">
<g opacity="0.6">
<path d="M10.86 10.0266L8.00004 12.8933L5.14004 10.0266C5.01451 9.90109 4.84424 9.83056 4.66671 9.83056C4.48917 9.83056 4.31891 9.90109 4.19338 10.0266C4.06784 10.1522 3.99731 10.3224 3.99731 10.5C3.99731 10.6775 4.06784 10.8478 4.19338 10.9733L7.52671 14.3066C7.58868 14.3691 7.66242 14.4187 7.74366 14.4526C7.8249 14.4864 7.91203 14.5038 8.00004 14.5038C8.08805 14.5038 8.17519 14.4864 8.25643 14.4526C8.33767 14.4187 8.4114 14.3691 8.47338 14.3066L11.8067 10.9733C11.8689 10.9111 11.9182 10.8373 11.9518 10.7561C11.9855 10.6749 12.0028 10.5879 12.0028 10.5C12.0028 10.4121 11.9855 10.325 11.9518 10.2438C11.9182 10.1626 11.8689 10.0888 11.8067 10.0266C11.7445 9.96447 11.6708 9.91516 11.5895 9.88152C11.5083 9.84788 11.4213 9.83056 11.3334 9.83056C11.2455 9.83056 11.1584 9.84788 11.0772 9.88152C10.996 9.91516 10.9222 9.96447 10.86 10.0266ZM5.14004 6.97329L8.00004 4.10663L10.86 6.97329C10.922 7.03578 10.9958 7.08537 11.077 7.11922C11.1582 7.15307 11.2454 7.17049 11.3334 7.17049C11.4214 7.17049 11.5085 7.15307 11.5898 7.11922C11.671 7.08537 11.7447 7.03578 11.8067 6.97329C11.8692 6.91132 11.9188 6.83758 11.9526 6.75634C11.9865 6.6751 12.0039 6.58797 12.0039 6.49996C12.0039 6.41195 11.9865 6.32481 11.9526 6.24357C11.9188 6.16234 11.8692 6.0886 11.8067 6.02663L8.47338 2.69329C8.4114 2.63081 8.33767 2.58121 8.25643 2.54737C8.17519 2.51352 8.08805 2.49609 8.00004 2.49609C7.91203 2.49609 7.8249 2.51352 7.74366 2.54737C7.66242 2.58121 7.58868 2.63081 7.52671 2.69329L4.19338 6.02663C4.06784 6.15216 3.99731 6.32242 3.99731 6.49996C3.99731 6.67749 4.06784 6.84776 4.19338 6.97329C4.31891 7.09883 4.48917 7.16935 4.66671 7.16935C4.84424 7.16935 5.01451 7.09883 5.14004 6.97329Z" fill="white"/>
</g>
</svg>
