<svg width="24" height="25" viewBox="0 0 24 25" fill="none" xmlns="http://www.w3.org/2000/svg">
<g opacity="0.6">
<path d="M18 1.5H10C9.20435 1.5 8.44129 1.81607 7.87868 2.37868C7.31607 2.94129 7 3.70435 7 4.5H6C5.20435 4.5 4.44129 4.81607 3.87868 5.37868C3.31607 5.94129 3 6.70435 3 7.5V10.5C3 11.2956 3.31607 12.0587 3.87868 12.6213C4.44129 13.1839 5.20435 13.5 6 13.5H12C12.2652 13.5 12.5196 13.6054 12.7071 13.7929C12.8946 13.9804 13 14.2348 13 14.5V15.5C12.4696 15.5 11.9609 15.7107 11.5858 16.0858C11.2107 16.4609 11 16.9696 11 17.5V21.5C11 22.0304 11.2107 22.5391 11.5858 22.9142C11.9609 23.2893 12.4696 23.5 13 23.5H15C15.5304 23.5 16.0391 23.2893 16.4142 22.9142C16.7893 22.5391 17 22.0304 17 21.5V17.5C17 16.9696 16.7893 16.4609 16.4142 16.0858C16.0391 15.7107 15.5304 15.5 15 15.5V14.5C15 13.7044 14.6839 12.9413 14.1213 12.3787C13.5587 11.8161 12.7956 11.5 12 11.5H6C5.73478 11.5 5.48043 11.3946 5.29289 11.2071C5.10536 11.0196 5 10.7652 5 10.5V7.5C5 7.23478 5.10536 6.98043 5.29289 6.79289C5.48043 6.60536 5.73478 6.5 6 6.5H7C7 7.29565 7.31607 8.05871 7.87868 8.62132C8.44129 9.18393 9.20435 9.5 10 9.5H18C18.7956 9.5 19.5587 9.18393 20.1213 8.62132C20.6839 8.05871 21 7.29565 21 6.5V4.5C21 3.70435 20.6839 2.94129 20.1213 2.37868C19.5587 1.81607 18.7956 1.5 18 1.5ZM15 17.5V21.5H13V17.5H15ZM19 6.5C19 6.76522 18.8946 7.01957 18.7071 7.20711C18.5196 7.39464 18.2652 7.5 18 7.5H10C9.73478 7.5 9.48043 7.39464 9.29289 7.20711C9.10536 7.01957 9 6.76522 9 6.5V4.5C9 4.23478 9.10536 3.98043 9.29289 3.79289C9.48043 3.60536 9.73478 3.5 10 3.5H18C18.2652 3.5 18.5196 3.60536 18.7071 3.79289C18.8946 3.98043 19 4.23478 19 4.5V6.5Z" fill="white"/>
</g>
</svg>
