<svg width="24" height="25" viewBox="0 0 24 25" fill="none" xmlns="http://www.w3.org/2000/svg">
<g opacity="0.6">
<path d="M12 7.5C11.7348 7.5 11.4804 7.60536 11.2929 7.79289C11.1054 7.98043 11 8.23478 11 8.5V12.5C11 12.7652 11.1054 13.0196 11.2929 13.2071C11.4804 13.3946 11.7348 13.5 12 13.5C12.2652 13.5 12.5196 13.3946 12.7071 13.2071C12.8946 13.0196 13 12.7652 13 12.5V8.5C13 8.23478 12.8946 7.98043 12.7071 7.79289C12.5196 7.60536 12.2652 7.5 12 7.5ZM12 15.5C11.8022 15.5 11.6089 15.5586 11.4444 15.6685C11.28 15.7784 11.1518 15.9346 11.0761 16.1173C11.0004 16.3 10.9806 16.5011 11.0192 16.6951C11.0578 16.8891 11.153 17.0673 11.2929 17.2071C11.4327 17.347 11.6109 17.4422 11.8049 17.4808C11.9989 17.5194 12.2 17.4996 12.3827 17.4239C12.5654 17.3482 12.7216 17.22 12.8315 17.0556C12.9414 16.8911 13 16.6978 13 16.5C13 16.2348 12.8946 15.9804 12.7071 15.7929C12.5196 15.6054 12.2652 15.5 12 15.5ZM21.71 8.06L16.44 2.79C16.2484 2.60727 15.9948 2.50368 15.73 2.5H8.27C8.00523 2.50368 7.75163 2.60727 7.56 2.79L2.29 8.06C2.10727 8.25163 2.00368 8.50523 2 8.77V16.23C2.00368 16.4948 2.10727 16.7484 2.29 16.94L7.56 22.21C7.75163 22.3927 8.00523 22.4963 8.27 22.5H15.73C15.9948 22.4963 16.2484 22.3927 16.44 22.21L21.71 16.94C21.8927 16.7484 21.9963 16.4948 22 16.23V8.77C21.9963 8.50523 21.8927 8.25163 21.71 8.06ZM20 15.81L15.31 20.5H8.69L4 15.81V9.19L8.69 4.5H15.31L20 9.19V15.81Z" fill="white"/>
</g>
</svg>
