<svg width="24" height="25" viewBox="0 0 24 25" fill="none" xmlns="http://www.w3.org/2000/svg">
<g opacity="0.6">
<path d="M12 16.4998C11.8022 16.4998 11.6089 16.5584 11.4444 16.6683C11.28 16.7782 11.1518 16.9344 11.0761 17.1171C11.0004 17.2998 10.9806 17.5009 11.0192 17.6949C11.0578 17.8889 11.153 18.067 11.2929 18.2069C11.4327 18.3467 11.6109 18.442 11.8049 18.4806C11.9989 18.5192 12.2 18.4994 12.3827 18.4237C12.5654 18.348 12.7216 18.2198 12.8315 18.0554C12.9413 17.8909 13 17.6976 13 17.4998C13 17.2346 12.8946 16.9802 12.7071 16.7927C12.5196 16.6051 12.2652 16.4998 12 16.4998ZM22.67 17.9698L14.62 3.96978C14.3598 3.5033 13.9798 3.11474 13.5192 2.84425C13.0586 2.57376 12.5341 2.43115 12 2.43115C11.4659 2.43115 10.9414 2.57376 10.4808 2.84425C10.0202 3.11474 9.64019 3.5033 9.38 3.96978L1.38 17.9698C1.11079 18.4238 0.966141 18.9408 0.960643 19.4686C0.955144 19.9964 1.089 20.5163 1.34868 20.9758C1.60837 21.4354 1.9847 21.8182 2.43968 22.0858C2.89466 22.3534 3.41218 22.4962 3.94 22.4998H20.06C20.5921 22.505 21.1159 22.3687 21.5779 22.1047C22.0399 21.8407 22.4234 21.4586 22.689 20.9976C22.9546 20.5366 23.0928 20.0132 23.0895 19.4811C23.0862 18.9491 22.9414 18.4274 22.67 17.9698ZM20.94 19.9698C20.8523 20.1257 20.7245 20.2553 20.5697 20.345C20.4149 20.4347 20.2389 20.4813 20.06 20.4798H3.94C3.76111 20.4813 3.5851 20.4347 3.43032 20.345C3.27553 20.2553 3.14765 20.1257 3.06 19.9698C2.97223 19.8178 2.92602 19.6453 2.92602 19.4698C2.92602 19.2942 2.97223 19.1218 3.06 18.9698L11.06 4.96978C11.1439 4.80598 11.2714 4.66852 11.4284 4.57253C11.5855 4.47654 11.766 4.42574 11.95 4.42574C12.134 4.42574 12.3145 4.47654 12.4716 4.57253C12.6286 4.66852 12.7561 4.80598 12.84 4.96978L20.89 18.9698C20.9892 19.1196 21.0462 19.2934 21.055 19.4729C21.0638 19.6524 21.0241 19.831 20.94 19.9898V19.9698ZM12 8.49978C11.7348 8.49978 11.4804 8.60514 11.2929 8.79268C11.1054 8.98021 11 9.23457 11 9.49978V13.4998C11 13.765 11.1054 14.0194 11.2929 14.2069C11.4804 14.3944 11.7348 14.4998 12 14.4998C12.2652 14.4998 12.5196 14.3944 12.7071 14.2069C12.8946 14.0194 13 13.765 13 13.4998V9.49978C13 9.23457 12.8946 8.98021 12.7071 8.79268C12.5196 8.60514 12.2652 8.49978 12 8.49978Z" fill="white"/>
</g>
</svg>
