<svg width="91" height="79" viewBox="0 0 91 79" fill="none" xmlns="http://www.w3.org/2000/svg">
<path d="M56.5 44.1C59.1679 41.7907 61.3078 38.9344 62.7744 35.7251C64.241 32.5158 65 29.0285 65 25.5C65 18.8696 62.3661 12.5107 57.6777 7.82233C52.9893 3.13392 46.6304 0.500001 40 0.500001C33.3696 0.500001 27.0107 3.13392 22.3223 7.82233C17.6339 12.5107 15 18.8696 15 25.5C15 29.0285 15.759 32.5158 17.2256 35.7251C18.6922 38.9344 20.8321 41.7907 23.5 44.1C16.5007 47.2694 10.5623 52.3876 6.3949 58.8427C2.22748 65.2978 0.00735927 72.8166 0 80.5C0 81.8261 0.526784 83.0979 1.46447 84.0355C2.40215 84.9732 3.67392 85.5 5 85.5C6.32608 85.5 7.59785 84.9732 8.53553 84.0355C9.47322 83.0979 10 81.8261 10 80.5C10 72.5435 13.1607 64.9129 18.7868 59.2868C24.4129 53.6607 32.0435 50.5 40 50.5C47.9565 50.5 55.5871 53.6607 61.2132 59.2868C66.8393 64.9129 70 72.5435 70 80.5C70 81.8261 70.5268 83.0979 71.4645 84.0355C72.4021 84.9732 73.6739 85.5 75 85.5C76.3261 85.5 77.5979 84.9732 78.5355 84.0355C79.4732 83.0979 80 81.8261 80 80.5C79.9926 72.8166 77.7725 65.2978 73.6051 58.8427C69.4377 52.3876 63.4993 47.2694 56.5 44.1ZM40 40.5C37.0333 40.5 34.1332 39.6203 31.6664 37.972C29.1997 36.3238 27.2771 33.9811 26.1418 31.2403C25.0065 28.4994 24.7094 25.4834 25.2882 22.5736C25.867 19.6639 27.2956 16.9912 29.3934 14.8934C31.4912 12.7956 34.1639 11.367 37.0736 10.7882C39.9834 10.2094 42.9994 10.5065 45.7402 11.6418C48.4811 12.7771 50.8238 14.6997 52.472 17.1664C54.1203 19.6332 55 22.5333 55 25.5C55 29.4782 53.4197 33.2936 50.6066 36.1066C47.7936 38.9197 43.9782 40.5 40 40.5ZM88.7 42.1C91.8998 38.4967 93.99 34.0453 94.719 29.2817C95.448 24.5181 94.7846 19.6454 92.8088 15.25C90.833 10.8546 87.629 7.12398 83.5824 4.50711C79.5357 1.89025 74.819 0.498712 70 0.500001C68.6739 0.500001 67.4021 1.02678 66.4645 1.96447C65.5268 2.90215 65 4.17392 65 5.5C65 6.82608 65.5268 8.09785 66.4645 9.03553C67.4021 9.97322 68.6739 10.5 70 10.5C73.9782 10.5 77.7936 12.0804 80.6066 14.8934C83.4196 17.7064 85 21.5218 85 25.5C84.9929 28.1262 84.2965 30.7045 82.9803 32.9771C81.6641 35.2497 79.7744 37.1369 77.5 38.45C76.7587 38.8776 76.1395 39.4883 75.7018 40.2237C75.2641 40.9591 75.0224 41.7945 75 42.65C74.9791 43.4988 75.1747 44.339 75.5683 45.0913C75.962 45.8436 76.5407 46.4833 77.25 46.95L79.2 48.25L79.85 48.6C85.877 51.4586 90.9616 55.98 94.5049 61.6316C98.0482 67.2832 99.9027 73.8297 99.85 80.5C99.85 81.8261 100.377 83.0979 101.314 84.0355C102.252 84.9732 103.524 85.5 104.85 85.5C106.176 85.5 107.448 84.9732 108.386 84.0355C109.323 83.0979 109.85 81.8261 109.85 80.5C109.891 72.8271 107.969 65.2713 104.267 58.5503C100.566 51.8293 95.2067 46.1666 88.7 42.1Z" fill="white"/>
</svg>
