<svg width="91" height="86" viewBox="0 0 91 86" fill="none" xmlns="http://www.w3.org/2000/svg">
<path d="M50 0C40.111 0 30.444 2.93245 22.2215 8.42652C13.9991 13.9206 7.59043 21.7295 3.80605 30.8658C0.0216642 40.0021 -0.968503 50.0555 0.960759 59.7545C2.89002 69.4536 7.65206 78.3627 14.6447 85.3553C21.6373 92.348 30.5465 97.11 40.2455 99.0393C49.9446 100.969 59.9979 99.9784 69.1342 96.194C78.2705 92.4096 86.0794 86.001 91.5735 77.7785C97.0676 69.5561 100 59.8891 100 50C100 43.4339 98.7067 36.9321 96.194 30.8658C93.6813 24.7995 89.9983 19.2876 85.3554 14.6447C80.7124 10.0017 75.2005 6.31876 69.1342 3.80602C63.0679 1.29329 56.5661 0 50 0V0ZM50 90C42.0888 90 34.3552 87.654 27.7772 83.2588C21.1992 78.8635 16.0723 72.6164 13.0448 65.3073C10.0173 57.9983 9.2252 49.9556 10.7686 42.1964C12.312 34.4371 16.1217 27.3098 21.7158 21.7157C27.3099 16.1216 34.4372 12.312 42.1964 10.7686C49.9557 9.22518 57.9983 10.0173 65.3074 13.0448C72.6164 16.0723 78.8635 21.1992 83.2588 27.7772C87.6541 34.3552 90 42.0887 90 50C90 60.6087 85.7858 70.7828 78.2843 78.2843C70.7828 85.7857 60.6087 90 50 90V90ZM65.5 53.15L55 47.1V25C55 23.6739 54.4732 22.4021 53.5356 21.4645C52.5979 20.5268 51.3261 20 50 20C48.6739 20 47.4022 20.5268 46.4645 21.4645C45.5268 22.4021 45 23.6739 45 25V50C45 50 45 50.4 45 50.6C45.0296 50.9445 45.114 51.2821 45.25 51.6C45.353 51.8967 45.4871 52.1816 45.65 52.45C45.7868 52.7342 45.9545 53.0025 46.15 53.25L46.95 53.9L47.4 54.35L60.4 61.85C61.162 62.2819 62.0241 62.506 62.9 62.5C64.0071 62.5077 65.0855 62.1478 65.966 61.4767C66.8465 60.8056 67.4793 59.8612 67.7653 58.7917C68.0513 57.7221 67.9742 56.5879 67.5461 55.5669C67.1181 54.5459 66.3632 53.6958 65.4 53.15H65.5Z" fill="white"/>
</svg>
