<svg width="76" height="84" viewBox="0 0 76 84" fill="none" xmlns="http://www.w3.org/2000/svg">
<path d="M71.4999 30.95L76.0499 26.45C76.9914 25.5085 77.5203 24.2315 77.5203 22.9C77.5203 21.5685 76.9914 20.2915 76.0499 19.35C75.1084 18.4085 73.8314 17.8795 72.4999 17.8795C71.1684 17.8795 69.8914 18.4085 68.9499 19.35L64.4499 23.9C57.4427 18.4793 48.8341 15.5382 39.9749 15.5382C31.1157 15.5382 22.5071 18.4793 15.4999 23.9L10.9499 19.3C10.0017 18.3585 8.71841 17.8322 7.38221 17.8369C6.04601 17.8416 4.7664 18.3769 3.82489 19.325C2.88337 20.2731 2.35706 21.5565 2.36175 22.8927C2.36644 24.2289 2.90174 25.5085 3.84989 26.45L8.44989 31C2.96496 37.9877 -0.01116 46.6167 -0.000112996 55.5C-0.0164414 61.8771 1.4922 68.1657 4.4 73.8413C7.3078 79.5169 11.5305 84.4151 16.7158 88.1272C21.9012 91.8393 27.899 94.2578 34.2089 95.181C40.5189 96.1042 46.9581 95.5054 52.9896 93.4345C59.0211 91.3635 64.4701 87.8805 68.882 83.2758C73.2939 78.6712 76.541 73.0784 78.3523 66.9639C80.1636 60.8494 80.4868 54.3905 79.2948 48.1257C78.1028 41.861 75.4302 35.972 71.4999 30.95V30.95ZM39.9999 85.5C34.0664 85.5 28.2663 83.7405 23.3328 80.4441C18.3993 77.1476 14.5541 72.4623 12.2835 66.9805C10.0129 61.4987 9.41877 55.4667 10.5763 49.6473C11.7339 43.8279 14.5911 38.4824 18.7867 34.2868C22.9823 30.0912 28.3277 27.234 34.1472 26.0764C39.9666 24.9189 45.9986 25.513 51.4804 27.7836C56.9622 30.0542 61.6475 33.8994 64.944 38.8329C68.2404 43.7664 69.9999 49.5666 69.9999 55.5C69.9999 63.4565 66.8392 71.0871 61.2131 76.7132C55.587 82.3393 47.9564 85.5 39.9999 85.5ZM29.9999 10.5H49.9999C51.326 10.5 52.5977 9.97321 53.5354 9.03553C54.4731 8.09785 54.9999 6.82608 54.9999 5.5C54.9999 4.17392 54.4731 2.90215 53.5354 1.96447C52.5977 1.02678 51.326 0.5 49.9999 0.5H29.9999C28.6738 0.5 27.402 1.02678 26.4644 1.96447C25.5267 2.90215 24.9999 4.17392 24.9999 5.5C24.9999 6.82608 25.5267 8.09785 26.4644 9.03553C27.402 9.97321 28.6738 10.5 29.9999 10.5V10.5ZM44.9999 40.5C44.9999 39.1739 44.4731 37.9021 43.5354 36.9645C42.5977 36.0268 41.326 35.5 39.9999 35.5C38.6738 35.5 37.402 36.0268 36.4644 36.9645C35.5267 37.9021 34.9999 39.1739 34.9999 40.5V49.95C33.8677 50.9626 33.0697 52.2951 32.7115 53.7712C32.3532 55.2473 32.4516 56.7974 32.9936 58.2163C33.5356 59.6353 34.4956 60.8562 35.7467 61.7176C36.9978 62.579 38.481 63.0402 39.9999 63.0402C41.5188 63.0402 43.002 62.579 44.2531 61.7176C45.5041 60.8562 46.4642 59.6353 47.0062 58.2163C47.5482 56.7974 47.6465 55.2473 47.2883 53.7712C46.93 52.2951 46.132 50.9626 44.9999 49.95V40.5Z" fill="white"/>
</svg>
