<svg width="87" height="87" viewBox="0 0 87 87" fill="none" xmlns="http://www.w3.org/2000/svg">
<path d="M51.0001 1.0002C43.3396 0.986343 35.7783 2.7329 28.8998 6.10506C22.0214 9.47722 16.0098 14.3848 11.329 20.449C6.64822 26.5132 3.42345 33.5719 1.9036 41.0802C0.383752 48.5885 0.609466 56.3456 2.56332 63.7528C4.51718 71.16 8.14692 78.0192 13.1724 83.801C18.1979 89.5828 24.4847 94.1325 31.5475 97.099C38.6104 100.066 46.2605 101.369 53.9073 100.91C61.5541 100.451 68.9931 98.2407 75.6501 94.4502H76.0001H76.2501C85.8764 88.9703 93.4106 80.449 97.6699 70.2239C101.929 59.9987 102.673 48.6487 99.7832 37.9554C96.8939 27.262 90.5355 17.8309 81.7062 11.1423C72.8768 4.45367 62.0763 0.886325 51.0001 1.0002V1.0002ZM56.0001 11.3502C64.8002 12.4662 72.9797 16.4757 79.2522 22.7481C85.5246 29.0206 89.5342 37.2001 90.6501 46.0002H56.0001V11.3502ZM51.0001 91.0002C40.8727 90.9311 31.1484 87.0229 23.7898 80.0644C16.4312 73.1058 11.9861 63.615 11.3516 53.5072C10.7171 43.3994 13.9404 33.4272 20.371 25.603C26.8016 17.7788 35.9608 12.6853 46.0001 11.3502V51.0002C46.0198 51.5988 46.1381 52.1901 46.3501 52.7502V53.1502V53.5002L66.3501 87.8502C61.4989 89.9266 56.2771 90.9981 51.0001 91.0002V91.0002ZM75.1501 82.8002L59.6501 56.0002H90.6501C89.9769 61.2732 88.2595 66.359 85.5981 70.9606C82.9367 75.5622 79.3849 79.5871 75.1501 82.8002Z" fill="white"/>
</svg>
