<svg width="91" height="70" viewBox="0 0 91 70" fill="none" xmlns="http://www.w3.org/2000/svg">
<path d="M25 30C24.0111 30 23.0444 30.2932 22.2221 30.8427C21.3999 31.3921 20.759 32.173 20.3806 33.0866C20.0022 34.0002 19.9031 35.0055 20.0961 35.9755C20.289 36.9454 20.7652 37.8363 21.4645 38.5355C22.1637 39.2348 23.0546 39.711 24.0245 39.9039C24.9945 40.0969 25.9998 39.9978 26.9134 39.6194C27.827 39.241 28.6079 38.6001 29.1573 37.7779C29.7068 36.9556 30 35.9889 30 35C30 33.6739 29.4732 32.4021 28.5355 31.4645C27.5979 30.5268 26.3261 30 25 30ZM85 30C84.0111 30 83.0444 30.2932 82.2221 30.8427C81.3999 31.3921 80.759 32.173 80.3806 33.0866C80.0022 34.0002 79.9031 35.0055 80.0961 35.9755C80.289 36.9454 80.7652 37.8363 81.4645 38.5355C82.1637 39.2348 83.0546 39.711 84.0245 39.9039C84.9944 40.0969 85.9998 39.9978 86.9134 39.6194C87.827 39.241 88.6079 38.6001 89.1574 37.7779C89.7068 36.9556 90 35.9889 90 35C90 33.6739 89.4732 32.4021 88.5355 31.4645C87.5979 30.5268 86.3261 30 85 30ZM95 0H15C11.0218 0 7.20644 1.58035 4.3934 4.3934C1.58035 7.20644 0 11.0218 0 15V55C0 58.9782 1.58035 62.7936 4.3934 65.6066C7.20644 68.4196 11.0218 70 15 70H95C98.9782 70 102.794 68.4196 105.607 65.6066C108.42 62.7936 110 58.9782 110 55V15C110 11.0218 108.42 7.20644 105.607 4.3934C102.794 1.58035 98.9782 0 95 0ZM100 55C100 56.3261 99.4732 57.5979 98.5355 58.5355C97.5979 59.4732 96.3261 60 95 60H15C13.6739 60 12.4021 59.4732 11.4645 58.5355C10.5268 57.5979 10 56.3261 10 55V15C10 13.6739 10.5268 12.4021 11.4645 11.4645C12.4021 10.5268 13.6739 10 15 10H95C96.3261 10 97.5979 10.5268 98.5355 11.4645C99.4732 12.4021 100 13.6739 100 15V55ZM55 20C52.0333 20 49.1332 20.8797 46.6664 22.528C44.1997 24.1762 42.2771 26.5189 41.1418 29.2597C40.0065 32.0006 39.7094 35.0166 40.2882 37.9264C40.867 40.8361 42.2956 43.5088 44.3934 45.6066C46.4912 47.7044 49.1639 49.133 52.0736 49.7118C54.9834 50.2906 57.9994 49.9935 60.7403 48.8582C63.4811 47.7229 65.8238 45.8003 67.472 43.3336C69.1203 40.8668 70 37.9667 70 35C70 31.0218 68.4196 27.2064 65.6066 24.3934C62.7936 21.5804 58.9782 20 55 20ZM55 40C54.0111 40 53.0444 39.7068 52.2221 39.1573C51.3999 38.6079 50.759 37.827 50.3806 36.9134C50.0022 35.9998 49.9031 34.9945 50.0961 34.0245C50.289 33.0546 50.7652 32.1637 51.4645 31.4645C52.1637 30.7652 53.0546 30.289 54.0245 30.0961C54.9945 29.9031 55.9998 30.0022 56.9134 30.3806C57.827 30.759 58.6079 31.3999 59.1573 32.2221C59.7068 33.0444 60 34.0111 60 35C60 36.3261 59.4732 37.5979 58.5355 38.5355C57.5979 39.4732 56.3261 40 55 40Z" fill="white"/>
</svg>
