<svg width="24" height="25" viewBox="0 0 24 25" fill="none" xmlns="http://www.w3.org/2000/svg">
<g opacity="0.6">
<path d="M21 11.5C20.4 11.5 20 11.9 20 12.5C20 15.4 18.5 18 16 19.4C12.2 21.6 7.3 20.3 5.1 16.5C2.9 12.7 4.2 7.8 8 5.6C11.3 3.7 15.3 4.4 17.8 7H15.4C14.8 7 14.4 7.4 14.4 8C14.4 8.6 14.8 9 15.4 9H19.9C20.5 9 20.9 8.6 20.9 8V3.5C20.9 2.9 20.5 2.5 19.9 2.5C19.3 2.5 18.9 2.9 18.9 3.5V5.3C17 3.5 14.6 2.5 12 2.5C6.5 2.5 2 7 2 12.5C2 18 6.5 22.5 12 22.5C17.5 22.5 22 18 22 12.5C22 11.9 21.6 11.5 21 11.5Z" fill="white"/>
</g>
</svg>
