<svg width="24" height="24" viewBox="0 0 24 24" fill="none" xmlns="http://www.w3.org/2000/svg">
<path d="M16 4C16 3.44772 15.5523 3 15 3C14.4477 3 14 3.44772 14 4L16 4ZM14 20C14 20.5523 14.4477 21 15 21C15.5523 21 16 20.5523 16 20L14 20ZM20 7.20001L19 7.20001L19 7.20001L20 7.20001ZM20 16.8L21 16.8L21 16.8L20 16.8ZM16.8002 20L16.8002 19L16.8002 19L16.8002 20ZM7.2002 20L7.2002 21L7.2002 21L7.2002 20ZM5.0918 19.782L4.63781 20.6731L4.63781 20.6731L5.0918 19.782ZM4.21799 18.908L5.10899 18.454L5.10899 18.454L4.21799 18.908ZM19.7822 18.908L20.6732 19.362L20.6732 19.362L19.7822 18.908ZM18.9078 19.782L18.4538 18.891L18.4538 18.891L18.9078 19.782ZM18.9078 4.21799L19.3618 3.32698L19.3618 3.32698L18.9078 4.21799ZM19.7822 5.09204L18.8912 5.54603L18.8912 5.54603L19.7822 5.09204ZM5.0918 4.21799L5.54579 5.10899L5.54579 5.10899L5.0918 4.21799ZM4.21799 5.09204L3.32698 4.63805L3.32698 4.63805L4.21799 5.09204ZM14 4L14 20L16 20L16 4L14 4ZM7.2002 5H16.8002V3H7.2002V5ZM19 7.20001L19 16.8L21 16.8L21 7.20001L19 7.20001ZM16.8002 19L7.2002 19L7.2002 21L16.8002 21L16.8002 19ZM5 16.8V7.20001H3V16.8H5ZM7.2002 19C6.62364 19 6.25124 18.9992 5.96778 18.9761C5.69592 18.9539 5.59516 18.9162 5.54579 18.891L4.63781 20.6731C5.01626 20.8659 5.40964 20.9372 5.80501 20.9695C6.18876 21.0008 6.65665 21 7.2002 21L7.2002 19ZM3 16.8C3 17.3436 2.99922 17.8114 3.03057 18.195C3.06287 18.5904 3.13419 18.9836 3.32698 19.362L5.10899 18.454C5.0838 18.4045 5.04612 18.3038 5.02393 18.0322C5.00078 17.7488 5 17.3766 5 16.8H3ZM5.54579 18.891C5.35791 18.7953 5.20501 18.6424 5.10899 18.454L3.32698 19.362C3.61446 19.9262 4.07304 20.3853 4.63781 20.6731L5.54579 18.891ZM19 16.8C19 17.3767 18.9993 17.7489 18.9762 18.0323C18.954 18.304 18.9164 18.4046 18.8912 18.454L20.6732 19.362C20.8661 18.9835 20.9373 18.5902 20.9696 18.1949C21.0008 17.8113 21 17.3435 21 16.8L19 16.8ZM16.8002 21C17.3438 21 17.8115 21.0008 18.1951 20.9694C18.5904 20.9371 18.9835 20.8657 19.3618 20.673L18.4538 18.891C18.4043 18.9162 18.3036 18.9539 18.0321 18.9761C17.7489 18.9992 17.3767 19 16.8002 19L16.8002 21ZM18.8912 18.454C18.7956 18.6417 18.6424 18.7949 18.4538 18.891L19.3618 20.673C19.9258 20.3856 20.3854 19.9269 20.6732 19.362L18.8912 18.454ZM16.8002 5C17.3768 5 17.7489 5.00078 18.0321 5.02393C18.3036 5.04611 18.4043 5.08377 18.4538 5.10899L19.3618 3.32698C18.9835 3.13421 18.5904 3.06288 18.1951 3.03057C17.8115 2.99922 17.3437 3 16.8002 3V5ZM21 7.20001C21 6.65656 21.0008 6.18875 20.9696 5.80515C20.9373 5.40986 20.8661 5.01654 20.6732 4.63805L18.8912 5.54603C18.9164 5.59536 18.954 5.69598 18.9762 5.9677C18.9993 6.2511 19 6.62336 19 7.20001L21 7.20001ZM18.4538 5.10899C18.6424 5.20508 18.7956 5.35828 18.8912 5.54603L20.6732 4.63805C20.3854 4.07316 19.9259 3.61439 19.3618 3.32698L18.4538 5.10899ZM7.2002 3C6.65663 3 6.18874 2.99922 5.80498 3.03057C5.40962 3.06286 5.01624 3.13416 4.63781 3.32698L5.54579 5.10899C5.59517 5.08383 5.69595 5.04613 5.9678 5.02393C6.25126 5.00078 6.62365 5 7.2002 5V3ZM5 7.20001C5 6.62346 5.00078 6.25119 5.02393 5.96785C5.04612 5.69619 5.0838 5.59548 5.10899 5.54603L3.32698 4.63805C3.13419 5.01643 3.06287 5.40964 3.03057 5.80499C2.99922 6.18866 3 6.65646 3 7.20001H5ZM4.63781 3.32698C4.07306 3.61473 3.61447 4.07382 3.32698 4.63805L5.10899 5.54603C5.205 5.35761 5.35788 5.20474 5.54579 5.10899L4.63781 3.32698Z" fill="white"/>
</svg>
