<svg width="16" height="16" viewBox="0 0 16 16" fill="none" xmlns="http://www.w3.org/2000/svg">
<rect x="7" y="5" width="2" height="7" fill="#272727"/>
<path d="M15.1335 11.6667L9.7335 2.33332C9.20017 1.39999 7.9335 1.06666 7.00017 1.59999C6.66684 1.79999 6.40017 2.06666 6.26684 2.33332L0.866837 11.6667C0.333504 12.6 0.666837 13.8667 1.60017 14.4C1.9335 14.6 2.26684 14.6667 2.60017 14.6667H13.3335C14.4668 14.6667 15.3335 13.7333 15.3335 12.6667C15.4002 12.2667 15.2668 11.9333 15.1335 11.6667ZM8.00017 12C7.60017 12 7.3335 11.7333 7.3335 11.3333C7.3335 10.9333 7.60017 10.6667 8.00017 10.6667C8.40017 10.6667 8.66684 10.9333 8.66684 11.3333C8.66684 11.7333 8.40017 12 8.00017 12ZM8.66684 8.66666C8.66684 9.06666 8.40017 9.33332 8.00017 9.33332C7.60017 9.33332 7.3335 9.06666 7.3335 8.66666V5.99999C7.3335 5.59999 7.60017 5.33332 8.00017 5.33332C8.40017 5.33332 8.66684 5.59999 8.66684 5.99999V8.66666Z" fill="#FDAC42"/>
</svg>
