<svg width="16" height="16" viewBox="0 0 16 16" fill="none" xmlns="http://www.w3.org/2000/svg">
<rect width="16" height="16" rx="8" fill="#CC3983"/>
<path d="M10.4734 5.52672C10.4114 5.46423 10.3377 5.41464 10.2564 5.38079C10.1752 5.34695 10.0881 5.32952 10.0001 5.32952C9.91205 5.32952 9.82491 5.34695 9.74367 5.38079C9.66243 5.41464 9.58869 5.46423 9.52672 5.52672L8.00005 7.06005L6.47339 5.52672C6.34785 5.40118 6.17759 5.33066 6.00005 5.33066C5.82252 5.33066 5.65226 5.40118 5.52672 5.52672C5.40118 5.65226 5.33066 5.82252 5.33066 6.00005C5.33066 6.17759 5.40118 6.34785 5.52672 6.47339L7.06005 8.00005L5.52672 9.52672C5.46423 9.58869 5.41464 9.66243 5.38079 9.74367C5.34695 9.82491 5.32952 9.91205 5.32952 10.0001C5.32952 10.0881 5.34695 10.1752 5.38079 10.2564C5.41464 10.3377 5.46423 10.4114 5.52672 10.4734C5.5887 10.5359 5.66243 10.5855 5.74367 10.6193C5.82491 10.6532 5.91205 10.6706 6.00005 10.6706C6.08806 10.6706 6.1752 10.6532 6.25644 10.6193C6.33768 10.5855 6.41141 10.5359 6.47339 10.4734L8.00005 8.94005L9.52672 10.4734C9.58869 10.5359 9.66243 10.5855 9.74367 10.6193C9.82491 10.6532 9.91205 10.6706 10.0001 10.6706C10.0881 10.6706 10.1752 10.6532 10.2564 10.6193C10.3377 10.5855 10.4114 10.5359 10.4734 10.4734C10.5359 10.4114 10.5855 10.3377 10.6193 10.2564C10.6532 10.1752 10.6706 10.0881 10.6706 10.0001C10.6706 9.91205 10.6532 9.82491 10.6193 9.74367C10.5855 9.66243 10.5359 9.58869 10.4734 9.52672L8.94005 8.00005L10.4734 6.47339C10.5359 6.41141 10.5855 6.33768 10.6193 6.25644C10.6532 6.1752 10.6706 6.08806 10.6706 6.00005C10.6706 5.91205 10.6532 5.82491 10.6193 5.74367C10.5855 5.66243 10.5359 5.5887 10.4734 5.52672ZM12.7134 3.28672C12.0984 2.64998 11.3628 2.1421 10.5494 1.79271C9.73606 1.44332 8.86126 1.25941 7.97606 1.25172C7.09087 1.24402 6.213 1.4127 5.39369 1.74791C4.57438 2.08311 3.83004 2.57814 3.20409 3.20409C2.57814 3.83004 2.08311 4.57438 1.74791 5.39369C1.4127 6.213 1.24402 7.09087 1.25172 7.97606C1.25941 8.86126 1.44332 9.73606 1.79271 10.5494C2.1421 11.3628 2.64998 12.0984 3.28672 12.7134C3.9017 13.3501 4.63733 13.858 5.45069 14.2074C6.26405 14.5568 7.13885 14.7407 8.02404 14.7484C8.90924 14.7561 9.7871 14.5874 10.6064 14.2522C11.4257 13.917 12.1701 13.422 12.796 12.796C13.422 12.1701 13.917 11.4257 14.2522 10.6064C14.5874 9.7871 14.7561 8.90924 14.7484 8.02404C14.7407 7.13885 14.5568 6.26405 14.2074 5.45069C13.858 4.63733 13.3501 3.9017 12.7134 3.28672ZM11.7734 11.7734C10.9014 12.6463 9.75375 13.1899 8.52592 13.3116C7.29809 13.4332 6.06606 13.1254 5.03973 12.4406C4.01341 11.7557 3.25629 10.7362 2.89737 9.55571C2.53844 8.37523 2.59992 7.10681 3.07133 5.96658C3.54273 4.82634 4.3949 3.88482 5.48265 3.30243C6.57039 2.72004 7.82642 2.53281 9.03672 2.77263C10.247 3.01246 11.3368 3.66451 12.1202 4.61769C12.9037 5.57087 13.3324 6.76621 13.3334 8.00005C13.3358 8.70091 13.1991 9.39528 12.9313 10.043C12.6636 10.6907 12.27 11.2788 11.7734 11.7734Z" fill="#272727"/>
</svg>
