<svg width="24" height="20" viewBox="0 0 24 20" fill="none" xmlns="http://www.w3.org/2000/svg">
<path d="M22.7 15.5L14.6 1.5C13.8 0.0999985 11.9 -0.400001 10.5 0.399999C10 0.699999 9.60001 1.1 9.40001 1.5L1.30001 15.5C0.500011 16.9 1.00001 18.8 2.40001 19.6C2.90001 19.9 3.40001 20 3.90001 20H20C21.7 20 23 18.6 23 17C23.1 16.4 22.9 15.9 22.7 15.5ZM12 16C11.4 16 11 15.6 11 15C11 14.4 11.4 14 12 14C12.6 14 13 14.4 13 15C13 15.6 12.6 16 12 16ZM13 11C13 11.6 12.6 12 12 12C11.4 12 11 11.6 11 11V7C11 6.4 11.4 6 12 6C12.6 6 13 6.4 13 7V11Z" fill="#FDAC42"/>
</svg>
